<svg height="512" viewBox="0 0 128 128" width="512" xmlns="http://www.w3.org/2000/svg"><g><path d="m57.344 67.339h-12.3l-8 10-8-10h-12.294a15 15 0 0 1 -15-15v-27.122a15 15 0 0 1 15-15h40.594a15 15 0 0 1 15 15v27.122a15 15 0 0 1 -15 15z" fill="#4d5680"/><g fill="#80a3ff"><path d="m41.047 47.231h-8v-13.331h4a4.336 4.336 0 1 0 -4.336-4.336h-8a12.336 12.336 0 1 1 16.336 11.67z"/><path d="m33.047 53.661h8v7.563h-8z"/></g><path d="m111.25 50.661h-38.906v1.678a15 15 0 0 1 -15 15h-1.688v25.444a15 15 0 0 0 15 15h12.3l8 10 8-10h12.3a15 15 0 0 0 15-15v-27.122a15 15 0 0 0 -15.006-15z" fill="#ff6680"/><g fill="#ffd830"><path d="m86.953 60.722h8v7.563h-8z"/><path d="m86.953 75.16h8v22.563h-8z"/></g></g></svg>