<svg id="Layer_1" height="512" viewBox="0 0 128 128" width="512" xmlns="http://www.w3.org/2000/svg" data-name="Layer 1"><path d="m11 36.303h98.844v65.801h-98.844z" fill="#fc445e"/><path d="m60.422 36.303h49.422v65.801h-49.422z" fill="#b20944"/><path d="m117 39.7v-5.444h-6.494a17.966 17.966 0 0 0 -3.308-7.977l4.594-4.594-3.851-3.85-4.594 4.594a17.966 17.966 0 0 0 -7.977-3.309v-6.494h-5.445v6.494a17.966 17.966 0 0 0 -7.977 3.308l-4.594-4.594-3.854 3.85 4.6 4.594a17.966 17.966 0 0 0 -3.308 7.977h-6.497v5.445h6.494a17.966 17.966 0 0 0 3.311 7.979l-4.6 4.594 3.851 3.851 4.594-4.594a17.966 17.966 0 0 0 7.977 3.308v6.494h5.448v-6.495a17.965 17.965 0 0 0 7.977-3.308l4.594 4.594 3.851-3.851-4.592-4.593a17.966 17.966 0 0 0 3.308-7.978zm-24.353 6.091a8.812 8.812 0 1 1 8.812-8.812 8.812 8.812 0 0 1 -8.812 8.812z" fill="#fed33c"/><path d="m48.389 84.314v-30.22l24.065 15.11z" fill="#f7ecda"/><path d="m109.844 109.8h-98.844a1.75 1.75 0 0 0 0 3.5h98.844a1.75 1.75 0 0 0 0-3.5z" fill="#9f5f4d"/><rect fill="#606de0" height="7.65" rx="3.583" width="17.231" x="18.255" y="107.723"/><path d="m60.422 76.759 12.032-7.555-12.032-7.555z" fill="#ecd6b2"/><path d="m107.2 26.278 4.594-4.594-3.851-3.85-4.594 4.594a17.966 17.966 0 0 0 -7.979-3.308v-6.494h-2.723v15.541a8.812 8.812 0 0 1 0 17.624v15.54h2.723v-6.494a17.965 17.965 0 0 0 7.977-3.308l4.594 4.594 3.851-3.851-4.592-4.593a17.966 17.966 0 0 0 3.308-7.978h6.492v-5.445h-6.494a17.966 17.966 0 0 0 -3.306-7.978z" fill="#fd9e35"/><path d="m31.9 107.723h-5.029v7.651h5.029a3.583 3.583 0 0 0 3.583-3.583v-.484a3.583 3.583 0 0 0 -3.583-3.584z" fill="#3647d7"/><path d="m109.844 109.8h-49.422v3.5h49.422a1.75 1.75 0 0 0 0-3.5z" fill="#714437"/></svg>